<svg version="1.2" xmlns="http://www.w3.org/2000/svg" viewBox="0 0 141 24" width="141" height="24">
	<title>666ddc3d174b035140f04b53_saturn_logo-svg</title>
	<defs>
		<linearGradient id="g1" x2="1" gradientUnits="userSpaceOnUse" gradientTransform="matrix(16.5,14,-13.971,16.465,4,5)">
			<stop offset="0" stop-color="#ffb846"/>
			<stop offset="1" stop-color="#978cff"/>
		</linearGradient>
	</defs>
	<style>
		.s0 { fill: url(#g1) } 
		.s1 { fill: #ffffff } 
	</style>
	<path id="Layer" fill-rule="evenodd" class="s0" d="m18.9 2.2q-0.1 0.3-0.2 0.7c-0.7 2.9-2.6 6.4-5.5 9.4-3 3-6.4 5-9.4 5.7q-1 0.3-2 0.3c-1.1-1.8-1.8-4-1.8-6.3 0-6.6 5.4-12 12-12 2.6 0 4.9 0.8 6.9 2.2zm1.7 1.4c2.1 2.2 3.4 5.1 3.4 8.4 0 6.6-5.4 12-12 12-3.5 0-6.6-1.5-8.8-3.8 3.7-0.7 7.9-2.9 11.4-6.5 3.1-3.2 5.1-6.8 6-10.1z"/>
	<path id="polyTool" fill-rule="evenodd" class="s1" d="m47.5 12.9c0 3.8-2.2 6.4-5.5 6.4-1.9 0-3.3-1-3.8-2.1v6.5h-4.8v-16.9h4.8v1.8c0.5-1.1 2-2.1 3.9-2.1 3.2 0 5.4 2.5 5.4 6.4zm-4.9 0c0-1.5-1-2.5-2.3-2.5-1.4 0-2.3 1-2.3 2.5 0 1.5 0.9 2.6 2.3 2.6 1.3 0 2.3-1.1 2.3-2.6zm6 0c0-3.8 2.8-6.4 7.1-6.4 4.3 0 7.1 2.6 7.1 6.4 0 3.8-2.8 6.4-7.1 6.4-4.3 0-7.1-2.6-7.1-6.4zm9.3 0c0-1.5-0.8-2.5-2.2-2.5-1.4 0-2.3 1-2.3 2.5 0 1.5 0.9 2.5 2.3 2.5 1.4 0 2.2-1 2.2-2.5zm6.6 6.1v-17.2h4.8v17.2zm15.8-12.2h4.8v11.4c0 2.1-0.8 3.6-1.8 4.5-1.2 1-2.5 1.4-4.8 1.4-2.4 0-3.8-0.4-4.9-1.3-0.9-0.7-1.6-2-1.6-3.2h4.8c0.1 0.7 0.6 1.2 1.7 1.2 1.2 0 1.8-0.6 1.8-1.9v-2.3c-0.6 1.3-1.9 2.1-3.8 2.1-3.2 0-4.5-2-4.5-5.2v-6.7h4.8v6.2c0 1.3 0.5 2.1 1.7 2.1q1.8 0 1.8-2.5zm10.7 12.2v-12.8h-4.4v-4.4h14v4.4h-4.4v12.8zm8.6-6.1c0-3.9 2.8-6.5 7.1-6.5 4.3 0 7.1 2.6 7.1 6.5 0 3.8-2.8 6.4-7.1 6.4-4.3 0-7.1-2.6-7.1-6.4zm9.4 0c0-1.5-0.9-2.5-2.3-2.5-1.4 0-2.3 1-2.3 2.5 0 1.5 0.9 2.4 2.3 2.4 1.4 0 2.3-0.9 2.3-2.4zm6.1 0c0-3.9 2.7-6.5 7.1-6.5 4.3 0 7.1 2.6 7.1 6.5 0 3.8-2.8 6.4-7.1 6.4-4.4 0-7.1-2.6-7.1-6.4zm9.3 0c0-1.5-0.8-2.5-2.2-2.5-1.4 0-2.3 1-2.3 2.5 0 1.5 0.9 2.4 2.3 2.4 1.4 0 2.2-0.9 2.2-2.4zm6.6 6.1v-17.2h4.8v17.2z"/>
</svg>